<?xml version="1.0" encoding="UTF-8"?>
<svg id="Layer_3" data-name="Layer 3" xmlns="http://www.w3.org/2000/svg" viewBox="0 0 1500 1000">

  <g id="head">
    <path class="cls-1" d="m399.73,289.09c1.41,50.4,2.93,100.84,7.66,151.06,1.34,14.21,2.94,28.4,4.83,42.55l2.37-1.06c-1.29-.07-11.65-.98-8.49-4.5,2.97-3.31,5.85,3.64,6.13,5.56l2.37-1.06c-19.92-1.13-44.48-1.65-59.62,13.73-8.96,9.1-11.45,22.62-6.89,34.52s16.58,20.48,28.87,24.25c14.33,4.4,29.7,3.92,44.45,2.54l-.85-.29c5.06,35.24,6.6,70.88,5.4,106.45-.6,17.78-1.86,35.53-3.62,53.24-.89,8.97-1.91,17.93-3.04,26.88-.57,4.5-1.16,9-1.78,13.5-.45,3.29-1.54,6.95-1.14,10.29.83,7.02,7.96,11.07,13.26,14.62,6.24,4.18,12.83,7.78,19.53,11.16,14.06,7.1,28.14,14.44,42.51,20.88,7.43,3.33,15.02,6.32,22.78,8.78,3.72,1.18,7.63,1.94,11.18,3.6,4.14,1.94,8.13,3.44,12.53,4.73,16.07,4.71,32.35,8.72,48.8,11.9,33.86,6.54,68.13,8.94,102.57,9.21,35.54.28,71.06-2.27,106.5-4.85,16.25-1.18,33-3.86,48.65-8.47,14.53-4.28,28.49-11.17,41.64-18.58s26.59-16.35,39.46-25.17c6.95-4.76,13.58-9.89,20.4-14.83,6.49-4.71,13.48-8.92,19.72-13.96,10.49-8.47,15.09-20.36,15.7-33.55.82-17.85,1.48-35.71,1.96-53.57.97-35.83,1.21-71.68.54-107.52-.16-8.84-.39-17.67-.66-26.5l-.92.82c12.22-4.07,25.3-8.28,35.6-16.32,9.38-7.32,16.46-17,19.82-28.47s.48-23.37-7.66-31.91c-6.77-7.1-16.13-10.73-25.67-12.19-11-1.68-22.24-.78-33.21.63l1.21.25c-.08-1.23.38-2.9.15-4.03.05-.23.13-.44.23-.65l-.98.1c.02.17.55.34.6.57.32,1.52,1.57,3.33-1.21,3.75l1.21.25c-2.28-26.18-3.46-52.51-3.4-78.79.04-16.08.55-32.16,1.48-48.22.49-8.43.99-16.88,1.81-25.29.72-7.44,2.3-14.86,1.92-22.37-.34-6.69-2.04-12.86-7.57-17.01-5.11-3.83-11.47-6.16-17.19-8.88-13.92-6.6-27.91-13.07-42.02-19.26-28.02-12.28-56.57-23.4-85.85-32.29-58.96-17.9-123.75-25.17-184.61-13.23-30.59,6-60.97,12.73-90.39,23.16-27.85,9.87-55.15,21.25-81.71,34.18-13.63,6.64-27.05,13.68-40.28,21.09-6.15,3.45-13.07,6.61-18.67,10.91-4.23,3.25-7.39,7.45-7.57,12.94-.27,8.28.53,16.74.93,25s.88,16.66,1.4,24.99c.99,16.18,2.1,32.35,2.97,48.54.43,8.06.81,16.13,1.09,24.2.02.67,2.93.16,2.9-.78-1.1-31.71-3.72-63.35-5.32-95.04-.4-7.88-.73-15.76-.96-23.65-.12-4.14-.18-7.82,2.27-11.34,2.13-3.07,5.17-5.13,8.35-6.99,12.67-7.42,25.53-14.53,38.58-21.26,26-13.42,52.76-25.33,80.12-35.71,14.5-5.5,29.07-10.5,43.99-14.71s30.11-7.76,45.4-10.95c15.31-3.19,30.52-6.12,46.12-7.48s31.19-1.71,46.78-1.06c30.84,1.28,61.51,6.34,91.36,14.11s56.65,18,83.95,29.39c13.78,5.75,27.43,11.83,40.99,18.09,6.73,3.11,13.44,6.26,20.13,9.45,5.89,2.8,12.94,5.19,17.41,10.18,4.98,5.57,4.91,14.6,4.33,21.6-.64,7.79-1.83,15.51-2.42,23.31-1.14,15.12-1.93,30.26-2.33,45.41-.65,25.09-.12,50.21,1.4,75.26.47,7.76,1.05,15.51,1.73,23.25.03.4,1.01.29,1.21.25,2.69-.41,7.89-3.49,4.03-6.49-1.02-.8-2.57-.67-3.65-.02-2.06,1.24-1.73,4.21-1.59,6.25.03.4,1.01.28,1.21.25,17.74-2.28,39.06-3.66,53.73,8.58,8.61,7.19,13.03,18.02,11.46,29.2s-8.1,21.59-16.33,29.2c-10.69,9.89-24.76,14.59-38.32,19.11-.34.11-.93.39-.92.82,1.07,34.75,1.29,69.52.76,104.28-.27,17.59-.73,35.18-1.35,52.76-.3,8.6-.65,17.2-1.03,25.79-.33,7.37-.66,14.51-3.46,21.43-5.91,14.6-20.45,21.71-32.52,30.54-12.74,9.31-25.47,18.48-38.74,27.05-13.44,8.68-27.33,16.76-42,23.18s-30.85,10.49-47.25,12.82c-17.59,2.5-35.32,3.42-53.05,4.53-17.15,1.08-34.41,2.42-51.6,2.54-34.06.24-68.13-.78-101.86-5.87-16.7-2.52-33.25-5.93-49.61-10.13-8.22-2.11-16.65-4.11-24.65-6.94-3.51-1.24-6.63-3.28-10.21-4.32-3.97-1.16-7.92-2.3-11.83-3.65-14.84-5.13-28.53-12.42-42.58-19.32-14.08-6.92-28.51-13.3-41.24-22.59-2.83-2.06-5.92-4.1-7.64-7.25-1.85-3.4-1.37-6.5-.85-10.18,1.23-8.76,2.38-17.53,3.41-26.31,1.97-16.75,3.55-33.54,4.59-50.37,2.12-34.11,2-68.4-1.31-102.43-.82-8.47-1.85-16.91-3.06-25.33-.04-.3-.65-.31-.85-.29-12.21,1.14-24.68,1.66-36.77-.77-6.07-1.22-12.04-3.21-17.44-6.26-2.41-1.36-5-2.9-7.03-4.81-1.05-.99-1.83-2.21-2.82-3.24-1.22-1.28-2.49-2.08-3.53-3.55-7.04-10-8.82-24.66-2.19-35.34,5.62-9.06,14.96-14.38,25.16-16.74,11.35-2.63,23.21-2.28,34.76-1.62.52.03,2.49-.21,2.37-1.06-.77-5.37-5.45-8.73-10.51-5.6-1.32.82-2.45,2.17-1.56,3.72,1.58,2.76,7.11,2.8,9.7,2.94.53.03,2.48-.21,2.37-1.06-6.69-49.92-9.47-100.24-11.19-150.55-.49-14.35-.9-28.71-1.3-43.06-.02-.66-2.92-.17-2.9.78h0Z"/>
  </g>
  <path class="cls-1" d="m597.94,306.37c17.57-12.48,38.37-19.83,59.72-22.29s44.89.33,66.21,7.03c12.26,3.86,24.09,8.99,35.4,15.07.88.48,3.53-.79,2.29-1.46-20.55-11.06-42.92-18.95-66.12-21.98s-45.04-1.15-66.3,6c-11.74,3.95-22.93,9.48-33.04,16.66-1.6,1.13.86,1.64,1.82.95h0Z"/>
  <path class="cls-1" d="m633.1,261.89c23.81-10.76,51.29-12.46,76.43-5.55,7.1,1.95,13.99,4.6,20.57,7.91.54.27,1.34.03,1.87-.16.13-.05,1.32-.6.86-.83-24.46-12.3-53.02-15.27-79.63-9.13-7.48,1.73-14.78,4.21-21.78,7.37-.38.17-.85.48-.35.76s1.59-.17,2.03-.37h0Z"/>
  <g id="eyedrow1">
    <path class="cls-1" d="m636.97,331.14c-11.52,14.5-27.13,30.51-47.47,27.38-4.46-.69-8.76-2.43-12.33-5.2s-6.19-6.2-8.54-9.88c-4.73-7.41-8.36-15.7-15.09-21.6s-16-9.36-25.13-9.6-18.7,2.73-26.47,7.9c-17.26,11.49-23.13,32.52-27.39,51.64-2.44,10.96-4.46,22.02-7.61,32.8s-7.02,20.4-11.92,30c-1.22,2.38-2.49,4.73-3.81,7.06-.4.71,1.81.27,1.97.21,8.53-3.33,14.6-10.29,19.81-17.55,6.57-9.15,12.83-18.54,19.23-27.81,3.27-4.74,6.53-9.47,9.81-14.21,2.88-4.16,5.8-8.31,9.17-12.09,6.49-7.27,15.67-13.71,25.92-12.21,8.62,1.26,14.97,8.01,19.61,14.89s8.22,14.99,13.39,21.83,11.57,12.32,20.03,13.01c9.45.77,18.35-4.52,24.18-11.63,3.19-3.88,5.66-8.3,7.88-12.8,2.34-4.75,4.52-9.59,6.6-14.47,4.24-9.95,7.91-20.19,10.13-30.78.54-2.55.98-5.12,1.34-7.7.12-.88-2.76-.35-2.87.45-1.48,10.57-4.52,20.84-8.35,30.78-1.91,4.95-4.01,9.83-6.21,14.66s-4.3,9.43-6.95,13.87c-4.73,7.93-12.36,16.16-22.3,16.32-8.76.14-15.81-6.19-20.78-12.77s-8.6-14.78-13.41-21.87c-4.49-6.61-10.37-12.85-18.43-14.75-9.22-2.18-19.03,1.48-26.2,7.26-7.93,6.39-13.43,15.2-19.14,23.48-6.55,9.49-13.1,18.98-19.65,28.47-5.28,7.65-10.42,16.09-18.11,21.58-1.79,1.28-3.71,2.34-5.77,3.14l1.97.21c5.29-9.3,9.74-19.08,13.23-29.19s6.02-21.49,8.34-32.42,4.4-20.99,8.12-31.02c3.44-9.25,8.36-18.23,15.92-24.75s16.38-10.12,25.94-10.23c9.33-.1,18.73,3.43,25.64,9.7s10.19,14.49,15.08,21.88c2.33,3.53,5.01,6.88,8.41,9.44s7.66,4.3,11.97,5.1c8.84,1.64,18.25-.31,26.17-4.39,8.71-4.48,15.88-11.37,22.19-18.75,1.55-1.81,3.05-3.66,4.53-5.53.41-.52-.36-.63-.72-.62-.59,0-1.53.23-1.93.73h0Z"/>
  </g>
  <g id="eyebrow2">
    <path class="cls-1" d="m730.05,328.56c6.06,7.63,12.61,15.11,20.72,20.63,7.6,5.18,16.49,8.3,25.76,7.99s17.22-3.87,23.06-10.64,9.02-15.1,14.4-22.08c5.7-7.39,14.08-12.27,23.33-13.59s19.27,1.28,27.28,6.41c17.61,11.29,23.45,32.61,27.72,51.84,2.43,10.95,4.46,22.01,7.62,32.79s7.04,20.39,11.96,29.98c1.18,2.31,2.42,4.6,3.71,6.86l2.62-1c-8.62-3.37-14.57-10.91-19.74-18.25-6.43-9.12-12.69-18.37-19.03-27.55-3.24-4.69-6.47-9.39-9.72-14.07-2.88-4.15-5.84-8.28-9.28-12-6.44-6.97-14.99-12.41-24.75-12.52-8.62-.09-16.13,4.51-21.58,10.9-5.52,6.47-9.02,14.2-13.45,21.38s-9.98,14.57-18.05,17.02c-9.3,2.82-18.66-2.97-24.43-9.92-3.27-3.95-5.76-8.46-8.01-13.05-2.3-4.7-4.45-9.47-6.5-14.29-4.2-9.88-7.83-20.05-10.04-30.57-.54-2.55-.98-5.12-1.34-7.7-.1-.73-3.02-.11-2.9.78,1.49,10.65,4.56,20.99,8.43,31,1.94,5.02,4.08,9.97,6.31,14.87s4.3,9.41,6.98,13.82c4.85,8,11.94,15.16,21.51,16.83,8.52,1.49,16.67-2.4,22.59-8.33s9.92-13.86,14.22-21.25c4.13-7.09,9.17-14.78,16.84-18.39,8.94-4.21,19.3-.18,26.45,5.71,8.04,6.61,13.61,15.79,19.46,24.27,6.6,9.56,13.2,19.12,19.8,28.68,5.23,7.57,10.43,15.8,18.26,20.97,1.76,1.16,3.64,2.13,5.61,2.9.4.16,3.03-.3,2.62-1-5.33-9.37-9.8-19.22-13.3-29.41s-6-21.5-8.31-32.43c-4.09-19.32-8.24-41.46-23.63-55.34-6.97-6.29-15.91-10.43-25.27-11.4s-18.61,1.22-26.43,6.02c-3.89,2.38-7.31,5.42-10.11,9.02s-4.82,7.2-6.99,10.94c-4.44,7.66-9.33,15.58-18.03,18.83s-18.32,1.59-26.31-2.2c-8.97-4.26-16.29-11.34-22.69-18.79-1.6-1.86-3.15-3.76-4.67-5.69-.5-.63-3.27.34-2.71,1.05h0Z"/>
  </g>
  <path class="cls-1" d="m643.54,473.35c9.16-9.81,22.65-13.63,35.75-13.66,7.39-.02,15.12.86,21.9,3.98,5.72,2.64,10.76,6.75,14.56,11.77,8.13,10.73,9.74,25.1,4.56,37.48-2.67,6.37-7.05,11.78-12.58,15.89s-12.17,7.05-18.83,9.27c-13.8,4.59-30.53,7.52-42.95-2.14-1.34-1.04-2.55-2.21-3.66-3.49-.49-.56-3.21.44-2.73,1.01,10.79,12.44,29,11.38,43.44,7.45s29.21-10.02,37.31-22.94c7.57-12.06,7.95-27.87.53-40.09-3.46-5.69-8.35-10.51-14.14-13.8-6.83-3.87-14.69-5.26-22.46-5.57-13.79-.55-28.57,2.48-39.46,11.38-1.37,1.12-2.66,2.34-3.87,3.63-.45.48.39.54.7.52.6-.02,1.5-.24,1.94-.71h0Z"/>
  <g id="eyebrow3">
    <path class="cls-1" d="m622.97,535.93c-13.62,22.75-32.76,41.73-54.26,57.07-10.76,7.68-22.13,14.48-33.89,20.51-6.64,3.41-13.45,6.69-20.8,8.25s-14.94,1.2-22.24-.29c-16.75-3.43-31.34-12.94-45.45-22.11-.94-.61-2.71-.02-2.56,1.25,1.6,13.16,9.34,24.42,16.62,35.11s14.59,20.93,23.82,29.73c9.11,8.69,19.96,15.13,32.05,18.72,12.18,3.61,25.12,4.52,37.71,3.02,25.7-3.05,49.8-15.5,69.86-31.45,18.33-14.58,34.21-33.45,41.91-55.84.93-2.72,1.74-5.48,2.42-8.27.34-1.39.64-2.78.91-4.18.29-1.49.55-2.95-.36-4.29-.76-1.11-2.03-1.79-3.16-2.47-1.47-.89-2.95-1.77-4.42-2.66-2.88-1.73-5.76-3.47-8.59-5.3-10.66-6.9-21.06-15.65-25.36-28.03-.97-2.8-1.6-5.72-1.77-8.68-.09-1.58-3.02-1.18-2.94.19.7,12.18,8.03,22.61,17.05,30.33,4.99,4.27,10.52,7.84,16.12,11.25,2.81,1.71,5.65,3.36,8.45,5.09,1.27.78,2.41,1.53,2.3,3.18-.1,1.42-.52,2.87-.83,4.25-5.1,22.62-19.16,42.31-36.17,57.65-18.41,16.59-41.05,29.96-65.4,35.33-24.29,5.36-50.99,1.69-70.95-13.84-9.88-7.69-17.76-17.59-24.96-27.75-3.62-5.11-7.19-10.29-10.56-15.56s-6.64-11.02-8.72-17.1c-1.02-2.99-1.74-6.06-2.12-9.19l-2.56,1.25c12.95,8.42,26.21,17.05,41.24,21.26,7.31,2.05,14.95,3.09,22.54,2.49s15.01-3.15,21.98-6.42c12.56-5.89,24.66-12.96,36.13-20.76,11.21-7.62,21.8-16.16,31.47-25.66,9.68-9.51,18.39-20.02,25.67-31.47.89-1.39,1.75-2.8,2.6-4.21.38-.64-.35-1.21-.91-1.3-.76-.13-1.5.27-1.88.91h0Z"/>
  </g>
  <g id="eyebrow4">
    <path class="cls-1" d="m754.85,529.64c6.94,11.6,15.3,22.29,24.7,31.99s19.81,18.46,30.84,26.28c11.08,7.85,22.8,14.79,34.91,20.94,6.93,3.52,14.08,6.79,21.77,8.19s15.22.95,22.66-.6c15.22-3.17,28.77-11.19,41.7-19.51,1.62-1.04,3.23-2.09,4.84-3.14l-2.45-.62c-1.58,13-9.29,24.08-16.48,34.63s-14.16,20.38-23.12,28.92c-9.01,8.59-19.68,14.95-31.67,18.4s-24.59,4.16-36.88,2.54c-25.13-3.31-48.63-15.82-68.13-31.64-17.77-14.41-33.05-32.99-40.29-54.96-.91-2.76-1.69-5.56-2.33-8.4-.29-1.27-.59-2.55-.77-3.84-.28-1.93,1.13-2.64,2.58-3.52,5.6-3.39,11.28-6.67,16.67-10.39,9.92-6.85,19.22-15.78,23.02-27.54.89-2.76,1.45-5.61,1.62-8.51.09-1.56-2.86-1.2-2.94.19-.74,12.81-9.2,23.4-18.96,31.01-5.38,4.2-11.23,7.72-17.07,11.22-1.35.81-2.69,1.61-4.03,2.43-1.23.75-2.52,1.49-3.3,2.75s-.6,2.55-.34,3.93c.29,1.53.62,3.05.99,4.56,5.6,22.94,20.09,42.72,37.54,58.21,9.37,8.32,19.73,15.58,30.72,21.6,11.55,6.33,23.89,11.25,36.82,13.88,24.76,5.04,51.85.99,72.1-14.78,10.05-7.83,18.1-17.87,25.43-28.2,3.71-5.23,7.36-10.52,10.8-15.93s6.83-11.39,8.92-17.68c.98-2.95,1.69-5.99,2.07-9.08.16-1.34-1.8-1.04-2.45-.62-12.71,8.27-25.72,16.74-40.48,20.83-7.19,1.99-14.75,2.94-22.2,2.15-7.56-.81-14.6-3.59-21.39-6.9-23.79-11.57-46.3-26.6-65.16-45.21-10.59-10.45-19.96-22.14-27.6-34.91-.71-1.18-3.45-.05-2.64,1.31h0Z"/>
  </g>
  <path class="cls-1" d="m613.02,749.47c16.7-13.56,36.71-23.24,57.93-27.08,20.82-3.76,42.5-1.69,62.1,6.33,10.89,4.45,21,10.68,29.76,18.54.75.67,3.47-.43,2.69-1.13-16.07-14.43-36.64-23.37-57.99-26.21-22.01-2.93-44.51.77-64.83,9.59-11.49,4.99-22.26,11.59-31.98,19.49-.49.4-.27.87.27,1.01.67.18,1.53-.13,2.05-.55h0Z"/>
  <g id="lefteye">
    <path class="cls-1" d="m604.18,420.31c-11.47,16.56-25.41,31.87-42.31,43.03-8.17,5.4-17.04,9.82-26.44,12.62-10.28,3.06-21.69,4.73-32.26,2.27-12.16-2.83-21.3-11.9-29.81-20.46-.54-.55-2.69-.1-2.79.75-1.04,8.83,3.02,16.88,7.41,24.24,2.33,3.91,4.79,7.74,6.95,11.75,2.31,4.28,4.39,8.67,6.73,12.93,4.18,7.61,9.43,14.38,16.3,19.75,6.44,5.03,13.89,8.72,21.81,10.72,16.06,4.06,33.68.41,47-9.37,7.2-5.28,12.62-12.4,16.75-20.25,4.41-8.38,7.74-17.38,10.31-26.48,5.23-18.48,7.02-37.94,5.24-57.07-.23-2.41-.51-4.82-.85-7.21-.13-.9-3.04-.24-2.9.78,2.6,18.54,1.8,37.49-2.32,55.76-2.03,8.99-4.85,17.81-8.45,26.3s-7.84,16.33-14.19,22.71c-11.37,11.45-28.15,16.85-44.07,14.32s-30.18-12.31-38.83-25.8c-4.97-7.75-8.52-16.32-13.3-24.19-4.35-7.18-9.41-14.57-10.63-23.07-.3-2.06-.32-4.13-.08-6.2l-2.79.75c7.73,7.79,15.92,15.95,26.51,19.64s23.14,2.66,34.2-.02c20.16-4.89,38.01-16.63,52.72-30.99,8.48-8.27,16.03-17.45,22.77-27.18.71-1.03-2.17-.75-2.68,0h0Z"/>
  </g>
  <g id="lefteye-pupil">
    <path class="cls-1" d="m514.01,480.03c-4.36,10.2-5.47,22.68-.71,32.95,4.14,8.93,13.87,13.42,23.32,13.99s19.01-2.41,26.51-8.26c7.27-5.67,12.38-13.81,14.34-22.81,2.67-12.28-.5-25.71-7.95-35.76-.84-1.13-3.58.05-2.64,1.32,6.44,8.67,9.44,19.69,8.32,30.43-.9,8.64-4.85,16.86-11.13,22.88s-14.4,9.56-23,9.98c-8.8.42-18.57-2.63-23.6-10.31-3.12-4.76-4.26-10.86-4.28-16.47-.02-6.02,1.25-11.99,3.61-17.52.67-1.57-2.24-1.69-2.79-.41h0Z"/>
  </g>
  <g id="righteye">
    <path class="cls-1" d="m761.23,415.28c11.88,17.16,26.41,32.9,44.05,44.25,8.6,5.53,17.91,9.93,27.77,12.68,10.71,2.99,22.48,4.41,33.39,1.74,12.54-3.07,21.97-12.14,30.79-21.03l-2.6.19c1.02,8.66-3.11,16.63-7.41,23.83-2.22,3.72-4.56,7.37-6.63,11.17-2.25,4.14-4.27,8.39-6.51,12.53-4.02,7.43-8.96,14.11-15.54,19.46-6.17,5.02-13.39,8.75-21.11,10.73-15.66,4.01-32.91.05-45.46-10.08-6.78-5.47-11.76-12.66-15.61-20.42-4.09-8.24-7.23-16.99-9.64-25.86-4.91-18.05-6.56-36.98-4.77-55.6.22-2.26.49-4.51.8-6.76.15-1.06-2.76-.54-2.89.39-2.68,19.11-1.78,38.68,2.62,57.47,2.2,9.38,5.26,18.59,9.2,27.38,3.69,8.23,8.39,16.19,15.07,22.35,12.13,11.18,29.47,16.17,45.72,13.58,16.37-2.61,31.38-12.31,40.47-26.17,5.21-7.95,8.84-16.82,13.78-24.94,4.45-7.32,9.66-14.94,10.78-23.64.26-2.06.27-4.13.03-6.19-.11-.89-2.26-.15-2.6.19-7.5,7.55-15.44,15.62-25.73,19.18s-22.38,2.15-32.88-.6c-19.43-5.07-36.53-16.78-50.65-30.78-8.07-8-15.28-16.83-21.74-26.16-.52-.74-3.33.2-2.7,1.11h0Z"/>
  </g>
  <g id="righteye-pupil">
    <path class="cls-1" d="m851.25,475.04c4.11,9.61,5.28,21.25,1.04,31.02-3.72,8.57-12.76,12.7-21.7,13.1-17.84.8-33.74-12.5-37.17-29.83-2.3-11.6.69-24.17,7.72-33.64,1.11-1.5-1.6-2.11-2.45-.96-6.83,9.21-9.95,20.89-8.65,32.28,1.06,9.21,5.51,17.81,12.29,24.11s16.02,10.06,25.42,10.33,19.77-3.13,25.25-11.17c3.4-4.98,4.76-11.33,4.86-17.28.11-6.41-1.19-12.84-3.71-18.73-.58-1.36-3.46-.55-2.9.78h0Z"/>
  </g>
  <g id="tuff4">
    <path class="cls-1" d="m1006.43,548.21c16.4,5.78,33.24,10.26,50.34,13.43s34.47,4.99,51.87,5.47c9.86.27,19.73.11,29.57-.49l-.53-.8c-16.22,10.23-33.56,21.13-53.39,21.32-5.47.05-10.9-.8-16.05-2.65-.41-.15-2.99.24-2.62,1.01,9.36,19.64,26.14,35.36,46.13,43.85,5.59,2.38,11.42,4.14,17.38,5.31l-.21-.79c-11.1,7.54-24.49,12.25-38.02,11.52-11.95-.64-23.45-5.72-31.75-14.39-4.54-4.75-7.93-10.48-9.68-16.82-.23-.85-2.67.02-2.89.61-7.19,19.83-14.76,40.4-28.58,56.7-3.84,4.53-8.15,8.64-12.92,12.17l2.49-.4c-1.76-2.05-.73-5.14-.18-7.45.68-2.85,1.44-5.69,2.23-8.51,1.59-5.65,3.32-11.26,4.79-16.95,2.63-10.1,4.64-20.79,3.02-31.23-1.29-8.31-4.67-16.56-10.35-22.84-2.72-3.01-5.99-5.49-9.68-7.17-1.87-.85-3.84-1.45-5.86-1.85-2.39-.47-5.12-.75-5.8-3.54-.34-1.37-.19-2.85-.15-4.24.05-1.73.11-3.46.16-5.19.11-3.46.21-6.92.32-10.38.22-7.08.43-14.16.65-21.25l-2.05,1.07c14.73-1.19,27.41,8.67,41.14,12.21,3.89,1,7.88,1.51,11.89,1.27.54-.03,1.63-.19,1.93-.73s-.25-.66-.73-.63c-14.74.89-27.33-9-41.16-12.39-3.89-.96-7.88-1.41-11.88-1.09-.58.05-2.03.27-2.05,1.07-.38,12.52-.78,25.03-1.15,37.55-.07,2.28-.1,4.85,2.08,6.21,1.87,1.16,4.23,1.17,6.31,1.73,4.01,1.07,7.67,3.14,10.77,5.88,6.44,5.71,10.37,13.9,12.17,22.22,2.23,10.33.69,20.94-1.78,31.09-1.57,6.45-3.54,12.8-5.35,19.19-.88,3.12-1.73,6.25-2.46,9.4-.58,2.49-1.41,5.44.44,7.6.48.56,2.05-.07,2.49-.4,17.43-12.9,27.7-32.58,35.6-52.28,2.29-5.72,4.42-11.5,6.52-17.28l-2.89.61c3.28,11.89,12.26,21.38,23.17,26.79,12.3,6.09,26.63,6.32,39.68,2.62,7.76-2.2,15.08-5.72,21.75-10.24.51-.35.32-.69-.21-.79-20.92-4.11-39.99-16.31-52.97-33.16-3.7-4.8-6.87-9.98-9.47-15.44l-2.62,1.01c19.97,7.15,41.34-.47,58.87-10.41,5.16-2.92,10.17-6.09,15.18-9.25.75-.47,0-.83-.53-.8-17.24,1.05-34.55.76-51.75-.89-17.21-1.65-34.29-4.63-51.04-8.93-9.4-2.41-18.69-5.24-27.85-8.47-.62-.22-1.48.02-2.04.33-.31.17-.95.68-.31.91h0Z"/>
  </g>
  <g id="tuff1">
    <path class="cls-1" d="m224.91,387.64c3.81.14,7.67.21,11.46-.32,1.44-.2,4.06-.48,5.02-1.79.71-.97-.66-1.44-1.41-1.62-1.89-.45-3.93-.33-5.85-.08-3.19.41-6.3,1.44-9.16,2.89-.47.24-.95.89-.07.92,24.48,1,45.34,16.1,62.19,32.69,5.75,5.67,11.21,11.62,16.66,17.57l2.54-1.12c-13.75-3.81-28.46-3.2-42.06.96s-26.08,11.67-35.83,21.98c-6.14,6.49-11.09,14.1-14.4,22.4-.3.75,1.76.26,1.96.19,15.12-5.66,30.83-9.75,46.81-12.08,16.45-2.4,33.08-2.17,49.66-2.36,8.9-.1,17.87-.75,26.41-3.4.31-.1,1.44-.42,1.3-.93s-1.32-.21-1.59-.15c-14.06,3.07-27.68,8.06-40.42,14.75s-24.36,14.92-34.82,24.61c-6.54,6.06-12.56,12.67-17.97,19.76-.67.88,1.56.47,1.85.35,14.29-5.97,28.53-12.07,42.87-17.9,6.37-2.59,12.71-5.21,19.01-7.98s12.73-5.6,19.23-8.06,13.09-4.6,19.88-5.95,13.77-1.68,20.78-1.3,14.53,1.29,21.81,1.78c3.75.25,7.5.4,11.26.35,3.07-.04,5.94-.1,8.64-1.71,1.99-1.18,3.51-3.01,3.86-5.35.21-1.39,0-2.71-.34-4.07-.47-1.85-.86-3.72-1.19-5.59-1.3-7.36-1.63-14.86-1.59-22.32.02-3.7.13-7.4.22-11.09.08-3.1.1-6.23-.38-9.31-.42-2.71-1.14-4.96-3.38-6.67s-5.05-3.19-7.53-4.78c-24.67-15.75-51.81-28.41-80.47-34.79-28.48-6.35-58.62-6.01-86.03,4.72-1.54.6-3.11,1.2-4.6,1.91-.52.25-1.02.54-1.52.83-.3.17-.59.34-.9.5-.04.02-.83.26-.39.24-.54.03-1.63.2-1.93.72s.26.62.72.6c2.57-.12,4.8-1.97,7.11-2.93,3.37-1.41,6.81-2.68,10.3-3.77,7.09-2.22,14.37-3.78,21.74-4.71,14.25-1.8,28.74-1.19,42.89,1.12,28.55,4.65,55.82,16.07,80.66,30.65,3.14,1.84,6.24,3.74,9.31,5.69,2.52,1.6,5.23,3.07,7.64,4.82,1.07.78,2.05,1.67,2.56,2.92s.79,2.71.98,4.09c.41,2.96.4,5.94.32,8.92-.2,7.35-.41,14.72.05,22.07.23,3.64.62,7.28,1.23,10.88.31,1.8.67,3.59,1.1,5.37.37,1.53.78,3.01.52,4.6-.37,2.21-2.02,4.39-4.28,4.94-1.48.36-3.32.17-4.84.18-1.88.01-3.77-.03-5.65-.11-7.17-.31-14.31-1.16-21.46-1.71s-13.81-.8-20.67.07-13.19,2.49-19.56,4.56c-12.92,4.19-25.15,10.15-37.65,15.41-13.6,5.72-27.28,11.25-40.89,16.94-3.5,1.46-6.99,2.92-10.49,4.38l1.85.35c8.96-11.72,19.57-22.14,31.44-30.9s23.7-15.19,36.81-20.25c7.35-2.84,14.91-5.09,22.6-6.77l-.29-1.08c-7.69,2.39-15.73,3-23.74,3.14s-16.65.06-24.97.32c-16.54.5-32.84,2.56-48.91,6.55-8.82,2.19-17.51,4.9-26.02,8.08l1.96.19c5.37-13.46,15.05-24.85,27.02-32.94,11.06-7.48,24.08-12.15,37.42-13.02,7.61-.49,15.27.25,22.62,2.29.43.12,3.21-.39,2.54-1.12-17.04-18.59-35.24-38.09-59.68-46.65-6.46-2.26-13.21-3.61-20.05-3.89l-.07.92c3.13-1.59,6.87-2.68,10.4-2.22.41.05.84.11,1.24.31.16.08.28.28.38.37-.03-.02.1-.06.02-.02-.11.04-.33.11-.09.04-.17.05-.33.09-.5.13-.14.03-.72.14-1.06.19-3.39.5-6.91.4-10.32.28-.65-.02-1.55.09-2.05.55-.36.33-.45.74.2.76Z"/>
  </g>
  <g id="tuff2">
    <path class="cls-1" d="m415.57,552.94c-2.72-.32-5.4-1.02-8.1-.1-1.01.34-1.83.91-2.58,1.64-.4.38-.8.94-1.29,1.21-.58.32-1.31.37-1.9.73-.33.2-.61.5-.97.64-.55.22-1.32.2-1.89.22-1.46.07-2.93-.01-4.39-.04-3.24-.06-6.49.33-9.71.74-13.42,1.72-26.51,5.49-38.99,10.67-24.32,10.09-45.87,25.62-65.74,42.7-11.28,9.7-22.09,19.94-32.89,30.17-.69.65,1.61.23,1.8.16,14.39-5.53,28.78-11.06,43.17-16.58,12.81-4.92,26.04-9.34,38.19-15.79,6.29-3.34,12.23-7.37,17.25-12.43l-2.73.4c-10.22,26.29-23.37,51.42-39.17,74.78-4.43,6.55-9.07,12.96-13.9,19.22-.35.45,1.8.06,1.92.02,15.11-5.22,27.07-15.83,37.34-27.77s19.84-26.23,30.88-38.43c6.12-6.76,12.84-13.04,20.53-17.98l-2.53.25c-1.8,7.36-3.59,14.73-5.39,22.09-1.56,6.41-3.34,12.8-4.45,19.31-.96,5.62-1.42,11.57.11,17.13s5.04,9.82,9.93,12.53c5.65,3.14,12.23,4.16,18.55,5.04.35.05,3.1-.52,2.56-1.02-6.25-5.83-6.54-15.56-3.63-23.11,3.5-9.09,11.12-15.77,17.78-22.55s12.83-14.09,14.33-23.49c.86-5.4.13-10.88-.49-16.26-.66-5.65-1.32-11.3-1.98-16.94-.72-6.18-1.33-12.4-2.18-18.56-.31-2.25-.85-4.61-2.56-6.24-1.82-1.73-4.48-2.12-6.88-2.38-.67-.07-1.41.1-2.02.39-.19.09-1.03.62-.37.69,2.17.24,4.52.55,6.25,2.01s2.33,3.91,2.65,6.11c.78,5.41,1.28,10.87,1.92,16.3s1.32,11.3,1.98,16.94c.62,5.34,1.48,10.76,1.08,16.15-1.53,20.63-23.99,29.57-31.82,47.04-3.58,7.97-3.56,18.55,3.2,24.86l2.56-1.02c-5.67-.8-11.51-1.67-16.73-4.17s-8.97-6.4-10.81-11.72-1.64-11.1-.85-16.58c.93-6.45,2.7-12.76,4.24-19.08,1.95-8,3.9-16.01,5.85-24.01.17-.71-2.28.1-2.53.25-13.58,8.72-24.02,21.24-33.82,33.88s-19.16,25.92-31.33,36.43c-6.62,5.72-14.08,10.45-22.38,13.32l1.92.02c17.24-22.33,31.96-46.57,43.8-72.17,3.32-7.18,6.41-14.46,9.27-21.83.24-.61-2.44.11-2.73.4-9.06,9.12-20.86,14.57-32.65,19.23-13.5,5.34-27.1,10.44-40.65,15.64-7.89,3.03-15.78,6.06-23.67,9.09l1.8.16c18.57-17.6,37.24-35.28,58.17-50.09,21.12-14.95,44.92-26.98,70.63-31.36,3.72-.63,7.48-1.11,11.24-1.39,3.12-.23,6.26.22,9.37-.21,1.24-.17,2.6-.43,3.7-1.05.22-.12.42-.27.63-.42.02-.02.59-.36.34-.25.6-.28,1.25-.37,1.84-.71.52-.31.96-.7,1.4-1.12.36-.35.84-1.01,1.31-1.19.69-.26,1.9.11,2.59.21.74.11,1.47.24,2.22.33.67.08,1.42-.1,2.02-.39.19-.09,1.03-.62.37-.69Z"/>
  </g>
  <g id="tuff3">
    <path class="cls-1" d="m969.91,401.54c19.78-18.04,45.17-28.58,71.26-33.5,14.72-2.78,29.73-3.82,44.7-3.87,7.63-.02,15.25.25,22.87.64s14.94.78,22.41.53c15.89-.54,31.44-4.82,45.19-12.83,1.69-.99.16-2.58-1.3-1.75-16.41,9.32-34.2,15.75-52.06,21.64-8.89,2.93-17.83,5.75-26.69,8.77s-18.22,6.26-26.69,10.84c-9.29,5.02-17.79,11.35-25.91,18.06-.72.6-.61,1.69.47,1.76,17.16,1,34.64,2.06,51.12,7.31,8.21,2.62,15.94,6.33,22.99,11.28s14.02,10.96,22.13,14.73c9.05,4.2,19.2,5.91,29.13,5.03l-.53-1.96c-26.83,12.06-57.16,4.34-82.82-6.91-7.66-3.36-15.16-7.07-22.64-10.81-.7-.35-1.91.11-2.22.82-2.12,4.78-1.88,10-.88,15.03,1.07,5.41,2.81,10.66,3.88,16.08,2.1,10.61,2.53,21.84-.97,32.21-1.8,5.33-4.56,10.27-8.38,14.42l2.67.06c-4.57-18.64-17.6-34.38-33.95-44.07-8.93-5.29-18.77-8.89-28.92-11.03-5.13-1.08-10.29-1.64-15.51-2.11-1.26-.11-2.58-.28-3.58-1.14-.85-.74-1.34-1.81-1.65-2.87-.7-2.37-.76-4.95-.97-7.4-1.14-13.46-1.42-26.99-.9-40.49.06-1.53-2.89-1.13-2.94.21-.46,12.03-.28,24.08.56,36.09.2,2.89.43,5.78.72,8.66.21,2.07.52,4.23,1.66,6.03,1.31,2.07,3.57,2.82,5.9,3.05,2.67.25,5.33.44,7.99.8,20.26,2.74,40.04,11.44,53.73,26.95,7.11,8.06,12.4,17.64,14.97,28.1.29,1.17,2.11.66,2.67.06,6.78-7.35,10.37-17.14,11.25-27.01.51-5.68.17-11.43-.69-17.06s-2.34-10.92-3.72-16.36c-1.48-5.82-2.67-12.13-.14-17.83l-2.22.82c26.37,13.18,54.66,26.49,84.95,23.57,8.1-.78,16.04-2.76,23.47-6.09,1.28-.58.86-2.08-.53-1.96-8.9.79-17.89-.63-26.11-4.13s-15.05-9.35-22.27-14.51-14.56-8.87-22.67-11.62c-7.99-2.71-16.29-4.41-24.64-5.56-9.6-1.33-19.28-1.93-28.95-2.5l.47,1.76c7.18-5.93,14.64-11.6,22.72-16.25s17.29-8.13,26.35-11.25c17.67-6.09,35.65-11.3,53.08-18.08,9.8-3.81,19.41-8.14,28.56-13.34l-1.3-1.75c-12.28,7.15-26.05,11.35-40.23,12.25-7.7.49-15.42.15-23.12-.24s-15.11-.71-22.68-.75c-28.58-.16-57.58,3.37-84.03,14.71-13.48,5.78-26.15,13.56-37,23.46-1.45,1.32.83,2.37,1.93,1.36h0Z"/>
  </g>
</svg>