<?xml version="1.0" encoding="UTF-8"?>
<svg id="Layer_3" data-name="Layer 3" xmlns="http://www.w3.org/2000/svg" viewBox="0 0 1500 1000">
  <defs>
    <style>
      .cls-1 {
        fill: #fff;
      }

      .cls-1, .cls-2 {
        stroke-width: 0px;
      }

      .cls-2 {
        fill: #231f20;
      }
    </style>
  </defs>
  <g id="head">
    <path class="cls-1" d="m308.67,155.04c2.73,97.81,5.73,193.66,18.71,289.98-30.82-1.27-2.45-21.14,0,0-33.95-1.96-77.38-1.96-95.35,32.49-7.49,17.97-4.49,37.44,7.49,52.42,3,1.5,4.49,4.49,7.49,7.49,25.46,20.97,61.41,20.97,92.86,17.97,14.98,103.34,8.99,205.19-5.99,310.03-1.5,5.99,1.5,13.48,7.49,17.97,22.47,17.97,47.93,28.46,71.89,40.44,25.46,13.48,50.92,25.46,79.38,32.95,4.49,1.5,8.99,4.49,13.48,5.99,53.92,16.48,106.34,26.96,161.76,31.45,35.95,3,70.39,3,104.84,3,43.43-1.5,86.87-4.49,130.3-7.49,25.46-3,49.43-5.99,73.39-13.48,47.93-16.48,86.87-43.43,130.3-73.39,14.98-11.98,28.46-20.97,43.43-31.45,16.48-11.98,23.96-28.46,25.46-46.43,4.49-95.85,5.99-190.21,3-286.07,17.97-5.99,35.95-11.98,52.42-23.96,8.99-7.49,16.48-14.98,22.47-25.46,1.5-3,3-7.49,4.49-10.48,5.99-13.48,5.99-29.95-1.5-43.43-19.47-32.95-61.41-31.45-94.11-27.2-1.63-18.55,12.66-1.38,0,0-1.63-18.55-2.86-37.14-3.68-55.74l-.52-13.44c-2.03-51.89-.54-104.31,3.96-158.23,1.5-16.48,5.99-32.95,0-49.43-3-7.49-10.48-11.98-16.48-14.98-74.89-35.95-148.28-68.9-229.15-91.36-80.88-20.97-158.76-28.46-241.13-16.48-31.45,5.99-59.91,11.98-91.36,19.47-13.48,4.49-26.96,7.49-40.44,11.98-79.38,26.96-151.27,59.91-224.66,103.34-5.99,4.49-11.98,10.48-11.98,19.47,1.5,61.41,7.49,122.81,9.56,183.83"/>
    <path class="cls-2" d="m307.22,155.43c2.11,75.48,4.39,151.04,11.47,226.25,2,21.29,4.4,42.53,7.24,63.73l2.37-1.06c-2.26-.12-17.71-1.41-12.93-7.04s10.04,4.45,10.56,8.1l2.37-1.06c-20.7-1.17-42.26-1.72-62.21,4.79-19.87,6.49-36.84,21.36-39.27,43.07-2.93,26.22,14.89,47.52,38.02,57.17,11.83,4.94,24.67,7.12,37.42,7.83,6.01.34,12.03.35,18.04.14,2.66-.09,5.33-.23,7.99-.4,1.58-.1,3.16-.22,4.74-.34,2.63-.21,4.12-1.11,5.68,1.16.76,1.1.65,4.65.83,6,.27,2,.53,4,.78,5.99.51,3.99.98,7.98,1.43,11.98.97,8.63,1.79,17.27,2.49,25.93,1.33,16.57,2.18,33.17,2.58,49.78.78,32.57-.15,65.17-2.38,97.67-2.3,33.57-6,67.04-10.58,100.38-.79,5.74-2.8,12.17-1.17,17.92,1.8,6.32,6.7,10.14,11.75,13.91,11.22,8.37,23.44,15.27,35.9,21.59,13.23,6.71,26.67,12.97,39.87,19.77,12.96,6.67,26.14,12.94,39.7,18.29,6.84,2.7,13.77,5.16,20.79,7.33,3.55,1.1,7.24,1.9,10.76,3.08,4.11,1.38,7.77,3.78,11.79,5.36,14.96,5.91,31.5,9.33,47.1,13.15,61.27,15.01,123.61,21.24,186.6,21.87,32.84.33,65.5-.98,98.27-2.94,32.81-1.96,65.72-3.47,98.23-8.46,14.5-2.22,29.13-4.99,43.1-9.57s26.24-10.04,38.77-16.22c25.88-12.77,50.11-28.58,73.91-44.82,12.97-8.85,25.35-18.36,38.11-27.49,10.92-7.83,23.38-14.66,32.73-24.39,19.8-20.6,17.51-49.43,18.54-75.93,2.59-66.83,3.63-133.72,2.57-200.59-.26-16.28-.64-32.56-1.15-48.83l-.92.82c18.19-6.06,37.69-12.31,53.02-24.28,13.99-10.92,24.53-25.36,29.53-42.46s.72-34.9-11.43-47.64c-10.09-10.58-24.01-16-38.23-18.18-16.36-2.5-33.08-1.16-49.4.93l1.21.25c-.12-1.81-.57-4.4.24-6.12.57-1.23.08-1.44,1.18-.3,2.34,2.42.34,5.71-2.63,6.16l1.21.25c-3.42-39.21-5.19-78.65-5.09-118.01.06-24.09.83-48.17,2.22-72.22.73-12.66,1.49-25.34,2.71-37.97,1.07-11.12,3.44-22.21,2.86-33.43-.51-10-3.03-19.21-11.29-25.4-7.62-5.71-17.12-9.2-25.66-13.25-20.85-9.89-41.8-19.58-62.94-28.84-41.96-18.39-84.72-35.04-128.58-48.36C849.88,3.74,753.01-7.15,662.01,10.7c-45.68,8.96-91.06,19.02-135,34.59-41.65,14.76-82.49,31.77-122.22,51.13-20.41,9.94-40.52,20.49-60.32,31.58-9.17,5.14-19.48,9.86-27.83,16.25-6.25,4.79-10.91,11.02-11.18,19.12-.41,12.39.8,25.07,1.4,37.45s1.33,24.96,2.09,37.43c1.49,24.23,3.14,48.46,4.45,72.7.65,12.08,1.21,24.16,1.63,36.25.02.67,2.93.16,2.9-.78-1.65-47.5-5.57-94.88-7.96-142.34-.59-11.8-1.09-23.61-1.44-35.42-.18-6.27-.26-11.82,3.46-17.16,3.25-4.67,7.9-7.8,12.74-10.63,18.98-11.12,38.24-21.76,57.78-31.84,39-20.12,79.13-37.99,120.16-53.55,21.77-8.26,43.66-15.77,66.08-22.09s45.23-11.65,68.19-16.44,45.83-9.18,69.25-11.22c23.34-2.03,46.81-2.56,70.23-1.59,46.23,1.92,92.22,9.52,136.97,21.16,42.92,11.17,84.85,26.96,125.74,44.01,20.65,8.61,41.09,17.72,61.39,27.1,10.08,4.66,20.13,9.38,30.15,14.15,8.85,4.21,19.45,7.8,26.16,15.29,7.51,8.39,7.39,21.95,6.52,32.5-.96,11.67-2.74,23.23-3.62,34.92-1.7,22.61-2.89,45.26-3.48,67.93-.97,37.58-.18,75.2,2.09,112.72.7,11.62,1.57,23.22,2.58,34.82.03.4,1.01.29,1.21.25,3.89-.59,10.61-5.03,5.25-9.13-1.25-.95-3.02-.97-4.37-.15-2.84,1.73-2.28,6.27-2.09,9.03.03.4,1.01.28,1.21.25,26.73-3.43,58.92-5.54,81.02,12.91,12.95,10.81,19.56,27.08,17.21,43.87-2.37,16.91-12.17,32.4-24.51,43.82-16.12,14.92-37.33,22.04-57.79,28.86-.34.11-.93.39-.92.82,1.61,52.05,1.93,104.12,1.13,156.19-.41,26.35-1.09,52.69-2.03,79.02-.46,12.88-.97,25.76-1.54,38.63-.49,11.06-.99,21.79-5.19,32.18-8.88,21.95-30.72,32.64-48.87,45.91-19.08,13.94-38.15,27.68-58.02,40.52s-41.12,25.21-63.21,34.87c-22.88,10.01-46.47,15.8-71.15,19.31-26.41,3.75-53.03,5.13-79.63,6.8-25.69,1.61-51.54,3.63-77.28,3.81-51.06.36-102.15-1.16-152.71-8.79-25.05-3.78-49.89-8.9-74.43-15.2-12.31-3.16-24.94-6.16-36.93-10.39-5.25-1.86-9.92-4.91-15.29-6.48-5.94-1.73-11.86-3.45-17.71-5.47-22.23-7.69-42.74-18.6-63.77-28.93-21.11-10.37-42.77-19.95-61.86-33.88-4.27-3.11-8.9-6.18-11.49-10.93-2.78-5.11-2.05-9.8-1.27-15.32,1.85-13.12,3.56-26.25,5.11-39.41,2.95-25.06,5.31-50.18,6.87-75.36,3.17-51.09,2.99-102.44-1.96-153.42-1.23-12.68-2.77-25.33-4.58-37.94-.04-.3-.65-.31-.85-.29-18.36,1.72-37.11,2.48-55.3-1.17-9.15-1.84-18.14-4.83-26.28-9.44-3.61-2.04-7.49-4.35-10.52-7.21-1.57-1.48-2.75-3.3-4.23-4.86-1.83-1.92-3.73-3.11-5.28-5.32-10.58-15.02-13.28-37.02-3.31-53.08,8.55-13.79,22.81-21.86,38.33-25.47,17.18-3.99,35.11-3.47,52.6-2.48.52.03,2.49-.21,2.37-1.06-1.04-7.31-7.38-13.01-14.59-8.44-1.85,1.18-3.31,3.08-2.04,5.23,2.35,4.02,10.47,4.06,14.27,4.26.53.03,2.48-.21,2.37-1.06-10.02-74.77-14.18-150.13-16.76-225.48-.74-21.5-1.35-43-1.95-64.5-.02-.66-2.92-.17-2.9.78h0Z"/>
  </g>
  <path class="cls-2" d="m621.55,183.18c3.29-2.34,6.66-4.57,10.1-6.68,1.75-1.07,3.52-2.12,5.3-3.13.8-.45,1.6-.9,2.41-1.34.43-.24.87-.47,1.31-.71.19-.1.37-.2.56-.3.78-.42-1.43.75-.31.16,7.16-3.71,14.55-6.99,22.12-9.78.86-.32,1.73-.63,2.6-.94,1.72-.61-1.33.45-.08.03.54-.18,1.07-.36,1.61-.54,1.88-.63,3.78-1.22,5.68-1.79,3.87-1.16,7.78-2.21,11.72-3.13,2-.47,4.02-.92,6.03-1.33.49-.1.97-.2,1.46-.29,1.68-.33-1.35.25-.08.01.98-.18,1.96-.36,2.94-.53,3.99-.69,8-1.27,12.03-1.74s8.06-.82,12.11-1.06c.99-.06,1.99-.11,2.98-.16.43-.02.85-.03,1.28-.06-2.15.11-.22.01.29,0,2.06-.06,4.12-.1,6.18-.1,8.44-.02,16.88.44,25.27,1.34.97.1,1.94.21,2.91.33.52.06,1.04.13,1.56.19.22.03.45.06.67.09,1.49.19-.94-.13-.07,0,2.15.3,4.31.61,6.45.96,4.15.67,8.28,1.45,12.39,2.32,8.38,1.78,16.66,3.98,24.83,6.55,2.08.65,4.15,1.33,6.22,2.03.93.31,1.85.63,2.77.96.5.17.99.35,1.49.53.21.08.43.15.64.23-1.12-.41-.09-.03.14.05,4.03,1.47,8.03,3.04,11.99,4.68,7.93,3.29,15.71,6.92,23.34,10.84,1.87.96,3.73,1.95,5.59,2.94,2.98,1.61,7.62.57,10.29-1.26,2.03-1.39,4.28-4.35,1.17-6.02-15.67-8.44-32-15.57-48.86-21.28-16.9-5.72-34.29-9.77-51.98-12.09-17.33-2.28-34.88-2.68-52.3-1.1-16.9,1.52-33.74,4.93-49.83,10.34s-32.4,12.94-46.96,22.56c-1.72,1.13-3.41,2.3-5.08,3.49-1.05.75-2.45,1.83-2.71,3.22-.22,1.19.47,2.29,1.53,2.8,2.99,1.47,7.63.63,10.29-1.26h0Z"/>
  <path class="cls-2" d="m665.44,114.99c17.5-7.92,36.37-12.52,55.52-13.88,19.35-1.37,38.93.57,57.65,5.68,10.71,2.92,21.1,6.9,31.01,11.89,1.08.54,2.67.06,3.73-.32.25-.09,2.63-1.2,1.73-1.66-18.21-9.17-37.98-14.91-58.22-17.24s-41.38-1.09-61.5,3.51c-11.43,2.61-22.59,6.4-33.27,11.23-.57.26-1.9,1.13-.71,1.52s2.98-.25,4.05-.74h0Z"/>
  <g id="eyedrow1">
    <path class="cls-1" d="m730.8,235.67c-15.4,11.83-32.21,23.06-52.18,27.59-19.97,4.53-43.82,1.05-58.27-12.86-14.05-13.52-16.42-33.34-27.39-48.88-10.29-14.57-28.22-24.68-47.1-27.44-18.88-2.76-38.42,1.65-53.55,11.23-16.82,10.66-27.88,26.96-36.59,43.66-10.34,19.84-17.97,40.81-28.57,60.52-9.97,18.55-22.56,35.91-37.38,51.58,16.97-2.43,30.04-13.53,42.03-24.12,17.74-15.67,35.48-31.34,53.22-47.01,9.83-8.68,19.86-17.5,32.27-23.13,12.41-5.63,27.79-7.69,40.96-2.43,19.54,7.79,27.94,28.02,35.03,45.88,7.09,17.86,17.86,37.92,38.41,42.9,12.3,2.99,25.38-.54,35.41-6.91,10.03-6.37,17.51-15.31,24.59-24.27,16.39-20.72,31.63-42.57,40.17-66.94"/>
    <path class="cls-2" d="m729.67,235.55c-12.85,9.86-26.44,19.13-41.85,24.48-14,4.86-29.34,5.96-43.72,2.04-6.86-1.87-13.44-4.88-19.05-9.28s-10.1-10.37-13.52-16.77c-6.74-12.6-10.38-26.83-19.54-38.07-19.47-23.88-54.07-30.44-82.52-21.27-14.68,4.73-27.36,13.6-37.37,25.28s-17.69,26.27-24.35,40.56c-7.42,15.93-13.97,32.28-22.34,47.75s-17.75,28.89-28.76,41.75c-2.67,3.11-5.41,6.16-8.22,9.14-.61.64.84.62,1.09.59,15.08-2.25,27.59-10.99,38.9-20.71,13.76-11.83,27.23-24.01,40.83-36.03,6.8-6.01,13.59-12.05,20.42-18.03,6.09-5.33,12.34-10.54,19.21-14.85,13.98-8.79,31.67-13.39,47.63-7.31,26.73,10.18,30.88,41.46,43.61,63.4,6.41,11.05,15.45,21.03,27.98,24.93,14.69,4.57,30.91.02,43.1-8.77,6.45-4.65,11.97-10.44,17.04-16.53s10.33-12.91,15.21-19.56c9.74-13.26,18.71-27.21,25.39-42.28,1.62-3.66,3.1-7.38,4.43-11.16.25-.72-2.58-.38-2.87.45-5.48,15.55-13.6,30-22.87,43.6-4.67,6.85-9.62,13.49-14.72,20.02s-9.83,12.55-15.52,18.12c-11.63,11.39-27.85,19.54-44.45,15.53-12.99-3.14-22.56-12.97-29.22-24.11-12.73-21.28-16.39-50.64-40.57-63.02-13.7-7.01-30.31-5.65-44.22.05-14.92,6.12-26.88,17.2-38.81,27.73-13.73,12.13-27.46,24.26-41.19,36.39-11.58,10.23-23.15,21.89-37.71,27.79-3.59,1.45-7.31,2.48-11.14,3.05l1.09.59c11.49-12.18,21.77-25.48,30.56-39.74s16.11-30.54,23.14-46.34c12.79-28.77,27.38-61.04,58.03-74.49,28.36-12.45,64.57-6.71,85.31,17.16,9.75,11.23,13.46,25.8,20.27,38.72,3.28,6.21,7.39,12.03,12.8,16.57s11.25,7.46,17.63,9.53c13.19,4.29,27.7,4.35,41.12,1.11,15.6-3.77,29.76-11.69,42.76-20.91,3.13-2.22,6.19-4.51,9.23-6.84,1.21-.93-1.66-.7-2.26-.24h0Z"/>
  </g>
  <g id="eyebrow2">
    <path class="cls-1" d="m755.79,229.48c15.11,11.9,31.6,23.19,51.17,27.82,19.56,4.62,42.9,1.26,57.01-12.57,13.71-13.44,15.97-33.24,26.67-48.72,10.03-14.52,27.55-24.53,46.03-27.19,18.48-2.66,37.62,1.83,52.46,11.48,16.5,10.73,27.38,27.07,35.95,43.81,10.18,19.87,17.71,40.86,28.15,60.62,9.82,18.58,22.19,35.99,36.75,51.72-16.62-2.51-29.45-13.66-41.22-24.3-17.41-15.74-34.82-31.48-52.24-47.23-9.65-8.73-19.5-17.58-31.66-23.26s-27.22-7.81-40.11-2.63c-19.1,7.69-27.26,27.87-34.15,45.68-6.89,17.81-17.37,37.8-37.47,42.69-12.03,2.93-24.85-.66-34.68-7.08-9.84-6.41-17.19-15.39-24.15-24.37-16.1-20.79-31.1-42.68-39.52-67.08"/>
    <path class="cls-2" d="m754.43,230.01c12.3,9.67,25.31,18.78,40.02,24.4,13.38,5.12,27.92,6.94,42.07,4.3s26.08-9.05,34.17-20.4c8.29-11.63,11.53-25.84,18.6-38.13s19.38-22.08,33.08-27.16c14.96-5.54,31.59-5.55,46.78-.86s27.61,13.81,37.53,25.78c10.12,12.21,17.3,26.55,23.83,40.9,7.32,16.07,13.84,32.54,22.24,48.1,7.81,14.46,17.11,28.11,27.66,40.71,2.66,3.17,5.39,6.27,8.2,9.31l2.28-1.19c-15.21-2.39-27.47-12.22-38.61-22.2-13.43-12.03-26.75-24.17-40.12-36.26-22.33-20.19-48.1-48.41-81.61-40.7-13.03,3-22.93,11.91-29.77,23.08s-10.35,23.39-15.76,35.03-12.78,23.22-24.37,29.24c-14.19,7.37-31.15,3.03-43.5-5.99-6.36-4.64-11.75-10.44-16.72-16.51s-10.12-12.89-14.9-19.53c-9.61-13.33-18.44-27.35-25.01-42.45-1.57-3.61-3.01-7.28-4.3-11-.28-.81-3.15.04-2.9.78,5.41,15.56,13.41,30.05,22.54,43.71,4.54,6.8,9.36,13.42,14.32,19.92s9.72,12.71,15.34,18.38c10.71,10.8,24.94,18.71,40.56,17.76,13.33-.81,24.62-8.25,32.48-18.75,7.8-10.42,11.98-22.59,16.92-34.48,4.97-11.97,11.22-24.35,22.04-32.07,13.07-9.33,30.17-8.36,44.4-2.26,15.13,6.49,27.13,18.43,39.16,29.31,13.63,12.33,27.27,24.65,40.9,36.98,11.18,10.11,22.43,21.19,36.78,26.64,3.33,1.27,6.78,2.16,10.3,2.71.39.06,2.94-.47,2.28-1.19-11.46-12.41-21.68-25.94-30.37-40.43s-15.8-30.8-22.75-46.67c-12.29-28.03-26.26-58.92-55.16-73.28-26.89-13.36-61.34-10.21-84.14,9.84-5.25,4.62-9.59,10.05-12.99,16.16s-5.98,12.82-8.72,19.34c-2.82,6.71-5.9,13.41-10.38,19.2-4.28,5.52-9.75,9.88-16.04,12.92-12.81,6.19-28.17,6.95-41.92,3.85-15.61-3.51-29.67-11.58-42.51-20.9-3.12-2.26-6.17-4.6-9.2-6.98-.69-.54-3.3.59-2.71,1.05h0Z"/>
  </g>
  <path class="cls-2" d="m694.97,466.1c13.77-14.79,34.19-20.6,53.9-20.8,11.26-.12,23.03,1.17,33.38,5.83,8.64,3.88,16.23,10.03,21.99,17.54,5.97,7.79,9.92,17.09,11.17,26.84,1.29,10.09-.21,20.49-4.17,29.85s-10.73,17.74-19.11,23.92-18.44,10.62-28.5,13.95c-20.9,6.93-46.41,11.45-65.19-3.26-1.96-1.54-3.76-3.27-5.39-5.15-.49-.56-3.21.44-2.73,1.01,7.08,8.21,17.42,12.88,28,14.51,12.34,1.9,24.93-.2,36.85-3.49,20.91-5.77,43.14-15.03,54.98-34.31,11.04-17.98,11.51-41.33.54-59.44-5.15-8.51-12.47-15.73-21.12-20.64-10.16-5.77-21.83-7.83-33.38-8.31-20.4-.84-42.3,3.64-58.35,16.92-1.95,1.61-3.79,3.36-5.52,5.21-.45.48.39.54.7.52.6-.02,1.5-.24,1.94-.71h0Z"/>
  <g id="eyebrow3">
    <path class="cls-1" d="m687.43,600.15c-40.04,45.38-96.08,74.26-154.16,91.28-10.37,3.04-20.95,5.75-31.75,6.01-18.64.45-36.86-6.49-52.61-16.47s-29.36-22.95-42.85-35.81c-1.27,18.35,6.07,36.09,13.41,52.95,10.88,24.98,22.53,50.47,42.09,69.44,22.54,21.85,54.11,33.05,85.48,34.22s62.55-7.1,91.17-20.01c42.82-19.32,82.28-51.22,99.13-95.07.37-.96.73-1.95.67-2.97-.11-1.93-1.65-3.44-3.09-4.74-11.97-10.75-24.53-21.09-34.13-34-9.6-12.91-16.11-29-13.96-44.94"/>
    <path class="cls-2" d="m686.2,599.68c-13.26,15-28.36,28.28-44.68,39.86-16.46,11.68-34.12,21.6-52.44,30.02-18.33,8.43-37.34,15.35-56.7,20.99-11.14,3.25-22.55,6.05-34.23,5.76-10.91-.27-21.66-3.13-31.65-7.45-20.38-8.8-37.26-23.69-53.22-38.78-2.04-1.93-4.08-3.87-6.11-5.81-.72-.68-2.52-.05-2.58.96-1.32,20.61,7.58,39.98,15.68,58.39,7.59,17.24,15.72,34.49,27,49.67,10.95,14.74,24.92,26.64,41.3,34.95,16.29,8.27,34.38,12.96,52.58,14.3,20.15,1.49,40.45-1.04,59.92-6.26s36.98-12.45,54.06-21.7c15.12-8.18,29.45-17.94,42.23-29.46s23.71-24.44,32.22-39.16c2.1-3.64,4.04-7.37,5.8-11.18.88-1.92,1.72-3.85,2.51-5.81s1.97-4.21,1.46-6.39c-.45-1.88-1.95-3.27-3.32-4.51-1.82-1.65-3.67-3.27-5.5-4.9-3.75-3.33-7.51-6.65-11.16-10.08-14.18-13.29-27.48-29.15-30.78-48.91-.79-4.73-.89-9.53-.28-14.28.2-1.54-2.77-1.19-2.94.19-2.42,18.88,6.57,36.98,18.51,51.01,6.29,7.4,13.45,14.01,20.7,20.47,3.45,3.08,7.34,5.97,10.46,9.39,1.92,2.11,1.55,3.93.56,6.43-.8,2.04-1.66,4.07-2.57,6.07-13.95,30.85-39.33,55.21-67.87,72.75-15.53,9.54-32.19,17.35-49.41,23.29-18.93,6.52-38.75,10.7-58.81,11.17-36.28.86-73.79-11.41-98.71-38.62-12.56-13.71-21.64-30.17-29.48-46.92-4.01-8.56-7.83-17.22-11.45-25.95-3.91-9.45-7.43-19.17-9.03-29.31-.78-4.92-1.04-9.88-.73-14.85l-2.58.96c16.27,15.52,32.85,31.27,53.02,41.64,9.68,4.97,20.11,8.65,30.91,10.17,11.52,1.62,22.99.27,34.23-2.49,20.33-5,40.35-12.19,59.56-20.5s37.04-17.84,54.11-29.26,32.77-24.46,46.75-39.34c1.74-1.85,3.44-3.72,5.12-5.62,1.22-1.38-1.53-1.98-2.45-.94h0Z"/>
  </g>
  <g id="eyebrow4">
    <path class="cls-1" d="m816.83,595.68c42.29,43.29,99.72,69.3,158.59,83.36,10.51,2.51,21.21,4.68,32.01,4.39,18.64-.49,36.49-8.34,51.71-19.12,15.22-10.77,28.16-24.4,40.98-37.94,2.2,18.26-4.23,36.35-10.71,53.57-9.6,25.5-19.94,51.55-38.52,71.48-21.4,22.97-52.37,35.75-83.64,38.5-31.27,2.75-62.83-3.92-92.06-15.37-43.74-17.13-84.76-46.99-103.82-89.93-.42-.94-.83-1.91-.82-2.93,0-1.94,1.47-3.52,2.84-4.89,11.41-11.34,23.43-22.31,32.36-35.68,8.94-13.38,14.62-29.78,11.67-45.59"/>
    <path class="cls-2" d="m815.5,596.33c14.39,14.7,30.57,27.55,47.96,38.52,17.39,10.97,35.91,20.12,55.02,27.67,19.42,7.67,39.49,13.76,59.84,18.41,11.35,2.59,22.99,4.46,34.66,3.23,10.67-1.13,21.01-4.49,30.6-9.23,20.2-9.98,36.53-25.88,51.94-41.99,1.94-2.03,3.87-4.07,5.81-6.11l-2.67-.08c2.39,20.72-5.98,40.86-13.25,59.8-6.63,17.3-13.86,34.63-24.34,50.01-10.16,14.91-23.44,27.16-39.23,35.9-15.63,8.65-33.06,13.94-50.79,15.95-38.9,4.42-78.83-6.04-113.65-23.05-30.05-14.67-57.84-35.98-75.77-64.59-2.22-3.54-4.27-7.17-6.15-10.9-.94-1.86-1.85-3.74-2.68-5.65-.43-.98-.91-2.02-.77-3.12.16-1.25,1.05-2.26,1.88-3.15,6.52-6.99,13.73-13.32,20.21-20.36,12.66-13.75,23.83-30.29,25.37-49.44.35-4.36.13-8.74-.64-13.04-.25-1.41-3.16-.67-2.9.78,3.53,19.6-5.83,38.63-17.92,53.45-6.33,7.76-13.5,14.79-20.64,21.8-1.81,1.78-3.64,3.54-5.42,5.34-1.3,1.32-2.66,2.89-2.89,4.8-.24,2.03.93,3.99,1.75,5.77.89,1.91,1.82,3.81,2.79,5.68,7.81,14.98,18.46,28.33,30.75,39.88s26.87,21.74,42.02,29.96c16.34,8.87,33.71,15.9,51.59,20.97,19.94,5.66,40.69,8.78,61.45,7.96,18.29-.73,36.46-4.66,53.23-12.04s31.32-17.85,42.94-31.56c12.27-14.49,20.76-31.72,27.92-49.18,3.71-9.04,7.2-18.18,10.47-27.38,3.5-9.83,6.57-19.94,7.63-30.36.51-5,.49-10.02-.09-15.02-.15-1.26-2.16-.62-2.67-.08-15.15,15.99-30.6,32.36-49.8,43.54-9.17,5.34-19.09,9.48-29.54,11.53-11.34,2.23-22.76,1.32-34.02-.92-20.23-4.01-40.23-10.06-59.52-17.31-18.88-7.1-37.23-15.7-54.55-26.07-17.15-10.28-33.28-22.29-47.73-36.12-1.89-1.81-3.76-3.66-5.59-5.53-.96-.98-3.7.23-2.64,1.31h0Z"/>
  </g>
  <path class="cls-2" d="m625.39,870.5c12.62-10.26,26.47-19.02,41.19-25.94s30.18-11.99,46.12-14.88,31.82-3.58,47.73-1.94c15.71,1.61,31.21,5.46,45.84,11.43,14.51,5.93,28.17,13.95,40.23,23.97,1.52,1.27,3.02,2.56,4.49,3.89.75.67,3.47-.43,2.69-1.13-11.93-10.73-25.57-19.48-40.21-26.03-14.68-6.57-30.34-10.97-46.28-13.1s-32.56-1.99-48.67.43c-16.4,2.46-32.46,7.16-47.67,13.75-15.29,6.63-29.73,15.16-42.96,25.29-1.62,1.24-3.22,2.51-4.81,3.8-.49.4-.27.87.27,1.01.67.18,1.53-.13,2.05-.55h0Z"/>
  <g id="lefteye">
    <path class="cls-1" d="m640.2,391.11c-30.12,43.58-73.45,82.38-126.04,88.81-11.55,1.41-23.51,1.18-34.5-2.65-15.59-5.44-27.79-17.52-39.42-29.24-2.27,17.9,10.19,33.81,19.2,49.45,6.46,11.23,11.41,23.34,18.79,33.99,14.09,20.34,37.2,34.36,61.84,36.73s50.29-7.22,66.8-25.65c8.59-9.58,14.63-21.18,19.59-33.06,15.99-38.28,21.45-80.9,15.63-121.98"/>
    <path class="cls-2" d="m638.86,391.11c-8.67,12.52-18.24,24.45-28.83,35.4s-22.02,20.8-34.63,29.14-25.8,14.87-40.04,19.12c-15.49,4.62-32.7,7.15-48.64,3.52-16.38-3.73-29.23-15.01-40.85-26.52-1.44-1.42-2.86-2.85-4.28-4.29-.55-.55-2.69-.1-2.79.75-1.59,13.19,4.59,25.3,11.15,36.28,3.51,5.89,7.21,11.66,10.46,17.7s6.47,12.78,9.91,19.05c6.2,11.3,13.97,21.38,24.14,29.39,9.59,7.56,20.72,13.13,32.56,16.15,23.96,6.11,50.3.69,70.08-14.1,10.69-7.99,18.68-18.69,24.8-30.46,6.51-12.53,11.44-25.96,15.24-39.55,7.73-27.61,10.35-56.66,7.63-85.21-.33-3.47-.74-6.92-1.23-10.37-.13-.9-3.04-.24-2.9.78,3.91,27.84,2.69,56.33-3.5,83.75-3.1,13.71-7.43,27.14-12.98,40.05-5.27,12.25-11.85,24.28-21.4,33.75-17.2,17.07-42.47,25.13-66.39,21.41s-45.48-18.33-58.54-38.58c-3.88-6.02-7.1-12.44-10.35-18.82-3.04-5.97-6.19-11.84-9.67-17.56-6.53-10.77-14.13-21.86-15.99-34.61-.46-3.14-.51-6.3-.13-9.46l-2.79.75c11.56,11.64,23.78,23.84,39.61,29.36s34.51,3.92,50.96-.13c14.78-3.64,28.87-9.8,41.87-17.68s25.45-17.86,36.54-28.72,21.22-22.88,30.32-35.53c1.13-1.58,2.25-3.17,3.36-4.76.71-1.03-2.17-.75-2.68,0h0Z"/>
  </g>
  <g id="lefteye-pupil">
    <path class="cls-1" d="m505.22,480.85c-6.39,14.75-7.91,33.59-.98,48.46,6.44,13.82,22.07,19.96,36.6,19.95,28.81-.02,52.83-22.08,56.06-50.48,1.88-16.5-2.64-33.74-12.62-47.04"/>
    <path class="cls-2" d="m503.83,480.65c-6.46,15.04-8.12,33.5-1.2,48.68,6.1,13.38,20.49,20.11,34.61,20.96,13.98.84,27.99-3.6,39.02-12.21,10.86-8.48,18.48-20.72,21.29-34.2,3.36-16.11.03-33.6-8.45-47.63-1.08-1.78-2.24-3.5-3.48-5.16-.84-1.13-3.58.05-2.64,1.32,9.67,12.99,14.18,29.55,12.55,45.65-1.33,13.17-7.35,25.72-16.94,34.87-9.54,9.11-22.13,14.62-35.33,15.16-13.24.55-27.89-4.05-35.51-15.54-4.26-6.43-6.11-14.56-6.5-22.18-.41-8.05.76-16.2,3.29-23.84.61-1.85,1.31-3.67,2.08-5.47.68-1.57-2.24-1.69-2.79-.41h0Z"/>
  </g>
  <g id="righteye">
    <path class="cls-1" d="m849.96,382.75c30.12,43.58,73.45,82.38,126.04,88.81,11.55,1.41,23.51,1.18,34.5-2.65,15.59-5.44,27.79-17.52,39.42-29.24,2.27,17.9-10.19,33.81-19.2,49.45-6.46,11.23-11.41,23.34-18.79,33.99-14.09,20.34-37.2,34.36-61.84,36.73-24.63,2.36-50.29-7.22-66.8-25.65-8.59-9.58-14.63-21.18-19.59-33.06-15.99-38.28-21.45-80.9-15.63-121.98"/>
    <path class="cls-2" d="m848.61,383.3c8.92,12.89,18.79,25.13,29.75,36.35s22.74,21.21,35.78,29.63,26.47,14.82,41.05,18.97c16,4.56,33.64,6.86,50,2.93,16.56-3.97,29.64-15.19,41.46-26.89,1.49-1.47,2.96-2.95,4.43-4.43l-2.6.19c1.58,13.09-4.75,25.19-11.26,36.06-3.37,5.63-6.91,11.16-10.03,16.94-3.3,6.1-6.29,12.36-9.59,18.46s-6.71,11.62-10.95,16.83c-3.77,4.63-8.03,8.84-12.68,12.59-9.24,7.45-20.02,13-31.52,15.99-23.5,6.12-49.37.48-68.42-14.52-10.42-8.2-18.07-19.09-23.96-30.88s-10.87-25.43-14.5-38.7c-7.42-27.09-9.93-55.54-7.27-83.51.33-3.47.74-6.92,1.23-10.37.15-1.06-2.76-.54-2.89.39-4,28.48-2.67,57.67,3.86,85.69,3.25,13.95,7.77,27.63,13.59,40.72,5.51,12.4,12.5,24.4,22.51,33.72,18.05,16.8,43.99,24.38,68.28,20.48,24.31-3.91,46.5-18.46,59.92-39.08,3.82-5.87,7.01-12.12,10.18-18.35s6.58-12.66,10.3-18.77c6.66-10.96,14.45-22.36,16.08-35.4.38-3.01.38-6.04.02-9.05-.11-.89-2.26-.15-2.6.19-11.29,11.37-23.19,23.38-38.63,28.83s-33.89,3.48-49.84-.64c-14.4-3.72-28.1-9.94-40.72-17.75s-24.7-17.66-35.47-28.3c-10.84-10.71-20.66-22.44-29.55-34.81-1.1-1.52-2.18-3.06-3.25-4.6-.52-.74-3.33.2-2.7,1.11h0Z"/>
  </g>
  <g id="righteye-pupil">
    <path class="cls-1" d="m984.93,472.49c6.39,14.75,7.91,33.59.98,48.46-6.44,13.82-22.07,19.96-36.6,19.95-28.81-.02-52.83-22.08-56.06-50.48-1.88-16.5,2.64-33.74,12.62-47.04"/>
    <path class="cls-2" d="m983.48,472.88c6.21,14.47,7.9,32.04,1.53,46.76-5.61,12.97-19.28,19.34-32.82,20.06-13.29.71-26.53-3.78-36.87-12.1-10.23-8.24-17.35-20.01-19.91-32.89-3.08-15.52.11-32.32,8.27-45.82,1.05-1.73,2.19-3.4,3.4-5.03,1.11-1.49-1.6-2.11-2.45-.96-10.07,13.53-14.68,30.75-12.88,47.5,1.48,13.81,8.07,26.76,18.21,36.22,10.16,9.48,23.59,14.95,37.46,15.39,13.9.44,29.37-4.54,37.44-16.54,4.47-6.65,6.48-14.93,6.96-22.84.52-8.38-.69-16.9-3.3-24.86-.63-1.92-1.35-3.8-2.14-5.66-.59-1.36-3.47-.55-2.9.78h0Z"/>
  </g>
  <g id="tuff4">
    <path class="cls-1" d="m1216.94,542.79c62.79,22.16,130.05,31.56,196.51,27.47-16.27,10.27-32.72,20.62-50.89,26.95-18.17,6.32-38.49,8.35-56.57,1.76,17.69,37.31,53.79,65.33,94.32,73.21-20.33,13.9-45.78,21.38-70,16.89s-46.42-22.22-52.85-45.99c-13.97,38.54-29.6,79.37-62.62,103.67-2.15-2.26-1.69-5.87-1-8.91,5.64-25.18,16.21-49.61,16.52-75.42s-13.96-54.65-39.34-59.32c-2.84-.52-6.05-.9-7.84-3.16-1.5-1.9-1.5-4.55-1.42-6.98.58-18.99,1.16-37.99,1.74-56.98,27.51-2.4,51.88,22.04,79.43,20.19"/>
    <path class="cls-2" d="m1215.77,543.41c24.61,8.67,49.9,15.4,75.56,20.14,25.53,4.71,51.41,7.42,77.36,8.14,14.72.41,29.46.16,44.16-.74l-.53-.8c-24.55,15.49-50.81,31.93-80.83,32.21-8.28.08-16.53-1.19-24.32-3.99-.42-.15-2.99.24-2.62,1.01,6.96,14.63,16.71,27.87,28.47,39.01,11.72,11.11,25.42,20.13,40.28,26.47,8.4,3.58,17.15,6.26,26.11,8.01l-.21-.79c-16.83,11.46-37.2,18.59-57.72,17.54-18.12-.93-35.58-8.58-48.13-21.77-6.75-7.09-11.82-15.68-14.41-25.13-.23-.85-2.67.02-2.89.61-5.48,15.11-11.07,30.2-17.91,44.76-6.75,14.35-14.74,28.24-25.04,40.36-5.75,6.77-12.21,12.92-19.36,18.2l2.49-.4c-2.57-2.89-1.24-7.3-.46-10.63,1-4.27,2.13-8.52,3.32-12.75,2.35-8.39,4.91-16.73,7.13-25.16,4.01-15.24,7.18-31.38,4.81-47.16-1.88-12.57-6.94-25.07-15.52-34.57-4.04-4.48-8.91-8.2-14.41-10.69-2.82-1.28-5.77-2.19-8.81-2.77-3.48-.67-7.59-1.12-8.71-5.12-.5-1.79-.39-3.7-.33-5.54.07-2.31.14-4.62.21-6.94.14-4.71.29-9.41.43-14.12.29-9.41.58-18.83.86-28.24.07-2.31.14-4.62.21-6.94l-2.05,1.07c10.83-.9,21.29,2.46,31.19,6.48,10.08,4.09,19.9,9.01,30.46,11.77,5.8,1.52,11.78,2.32,17.78,1.94.54-.03,1.63-.19,1.93-.73s-.25-.66-.73-.63c-10.86.68-21.31-2.82-31.23-6.88s-19.87-9.01-30.45-11.65c-5.8-1.45-11.78-2.16-17.76-1.66-.58.05-2.03.27-2.05,1.07-.58,18.83-1.16,37.66-1.73,56.48-.11,3.53-.01,7.31,3.48,9.2,2.9,1.57,6.46,1.6,9.6,2.49,5.95,1.69,11.37,4.86,15.94,9.01,9.53,8.63,15.35,20.91,17.98,33.35,3.27,15.47.91,31.36-2.81,46.54-2.09,8.54-4.63,16.95-7.06,25.39-1.21,4.22-2.4,8.46-3.48,12.72-.93,3.64-2.3,7.61-2.13,11.42.07,1.62.58,3.08,1.66,4.3.5.56,2.04-.07,2.49-.4,12.79-9.45,23.25-21.59,31.78-34.95,8.68-13.62,15.45-28.35,21.45-43.32,3.41-8.51,6.57-17.12,9.7-25.75l-2.89.61c4.84,17.67,18.22,31.85,34.41,39.92,18.2,9.08,39.38,9.53,58.74,4.09,11.51-3.23,22.41-8.46,32.28-15.18.51-.35.32-.69-.21-.79-15.75-3.08-30.86-9.24-44.42-17.8-13.49-8.52-25.49-19.4-35.22-32.05-5.51-7.17-10.26-14.91-14.15-23.08l-2.62,1.01c14.25,5.13,29.8,5.07,44.48,1.93s29.43-9.83,42.88-17.48c7.61-4.32,15.01-8.99,22.41-13.66.75-.47,0-.83-.53-.8-25.86,1.58-51.82,1.14-77.61-1.33s-51.41-6.94-76.52-13.37c-14.11-3.62-28.06-7.86-41.81-12.71-.62-.22-1.48.02-2.04.33-.31.17-.95.68-.31.91h0Z"/>
  </g>
  <g id="tuff1">
    <path class="cls-1" d="m46.06,302.25c36.9,1.39,18.97-9.76,0,0,36.9,1.39,68.42,24.17,93.8,49.16,8.62,8.49,16.79,17.41,24.96,26.32-40.08-11.23-84.94,3.61-113.11,33.57-9.03,9.6-16.36,20.83-21.21,33.1,22.67-8.5,46.23-14.63,70.17-18.24,24.6-3.71,49.46-3.57,74.26-3.74,13.51-.09,27.2-.83,40.18-4.92-41.6,9.02-80.52,29.66-111.61,58.69-9.53,8.9-18.33,18.58-26.23,28.96,21.63-9.03,43.24-18.12,64.89-27.09,32.94-12.53,65.89-32,101.83-35,23.96-1.5,47.93,4.49,73.39,3,5.99-1.5,10.48-5.99,8.99-13.48-3.57-13.37-4.52-27.23-4.54-41.02,0-6.74.2-13.49.38-20.23.14-5.37-.04-13.25-2.08-18.27-1.54-3.79-7.03-6.18-10.54-8.48-8.73-5.7-17.65-11.12-26.74-16.21-18.48-10.34-37.71-19.38-57.61-26.64-38.93-14.22-81.1-21.84-122.48-16.32-9.81,1.31-19.52,3.35-29.02,6.16-4.81,1.42-9.57,3.04-14.25,4.85-2.37.92-4.72,1.88-7.04,2.89-1.55.68-4.77,3-6.4,2.94Z"/>
    <path class="cls-2" d="m45.14,302.91c5.61.2,11.3.32,16.88-.46,1.89-.26,5.45-.6,6.7-2.34.95-1.34-1.2-1.96-2.15-2.17-2.68-.6-5.54-.44-8.25-.09-4.57.6-9.02,2.06-13.11,4.14-.47.24-.96.89-.07.92,18.16.73,35.55,6.78,51.2,15.83s29.41,20.63,42.16,33.19c8.62,8.49,16.79,17.41,24.96,26.32l2.54-1.12c-20.38-5.66-42.18-4.77-62.34,1.41-20.16,6.18-38.8,17.45-53.27,32.83-9.08,9.66-16.41,20.94-21.32,33.26-.3.75,1.76.26,1.96.19,22.7-8.5,46.28-14.64,70.27-18.16s49.58-3.33,74.43-3.58c13.32-.14,26.76-1.05,39.54-5.03.31-.1,1.44-.42,1.3-.93s-1.32-.21-1.59-.15c-20.95,4.57-41.26,12.02-60.24,21.99-18.85,9.91-36.39,22.3-52.01,36.79-9.74,9.04-18.71,18.9-26.78,29.46-.67.88,1.56.47,1.85.35,21.36-8.92,42.7-17.89,64.08-26.75,9.42-3.9,18.85-7.72,28.19-11.83s18.87-8.3,28.5-11.98,19.62-6.96,29.81-9.06c5.03-1.04,10.16-1.89,15.28-2.23,5.38-.36,10.8-.27,16.19,0,10.8.53,21.55,1.84,32.34,2.62,5.52.4,11.06.66,16.6.64,2.69,0,5.5.09,8.17-.26,1.78-.23,3.64-1.04,5.19-1.92,2.97-1.69,5.26-4.39,5.81-7.84.33-2.1.02-4.09-.5-6.12-.7-2.75-1.28-5.53-1.78-8.32-1.95-11-2.45-22.2-2.4-33.35.03-5.68.19-11.37.34-17.05.12-4.55.12-9.14-.57-13.65-.31-2-.71-4.09-1.55-5.94-.79-1.72-2.19-3.04-3.68-4.15-1.65-1.22-3.45-2.22-5.22-3.27-2.19-1.3-4.29-2.74-6.44-4.1-18.54-11.79-37.92-22.3-58.04-31.13-20.03-8.79-40.84-15.92-62.21-20.65s-42.78-7-64.4-6.05c-21.91.96-43.68,5.35-64.08,13.45-2.16.86-4.41,1.67-6.48,2.75-.75.39-1.47.84-2.21,1.25-.57.32-1.45.97-2.11.99-.48.01-1.71.21-1.93.72s.19.61.72.6c1.67-.05,3.25-.8,4.69-1.58,1.77-.96,3.47-1.88,5.34-2.66,5.07-2.12,10.23-4.02,15.47-5.66,10.65-3.34,21.59-5.7,32.66-7.12,21.42-2.74,43.2-1.88,64.48,1.56,21.29,3.44,42.13,9.47,62.23,17.24,20.36,7.87,39.99,17.55,58.82,28.58,4.82,2.83,9.6,5.74,14.32,8.74,2.09,1.33,4.14,2.73,6.26,4,1.76,1.05,3.56,2.04,5.22,3.25s3.07,2.51,3.82,4.36,1.18,4,1.47,6.05c.64,4.47.62,8.99.5,13.49-.29,11.08-.61,22.17.09,33.24.35,5.56.96,11.11,1.92,16.6.47,2.7,1.03,5.38,1.69,8.05.56,2.25,1.05,4.41.6,6.73-.69,3.57-3.32,6.29-6.73,7.44-1.01.34-2.11.28-3.17.32-1.42.05-2.85.09-4.28.1-2.81.02-5.63-.03-8.44-.14-10.8-.43-21.53-1.7-32.29-2.55s-20.74-1.27-31.04.04-19.56,3.68-29.01,6.74c-19.41,6.28-37.77,15.25-56.54,23.14-9.88,4.15-19.85,8.08-29.74,12.2-10.55,4.4-21.09,8.81-31.63,13.23-5.14,2.15-10.27,4.3-15.41,6.44l1.85.35c13.47-17.64,29.47-33.31,47.33-46.47s35.67-22.81,55.39-30.41c11.04-4.25,22.38-7.64,33.94-10.16l-.29-1.08c-11.59,3.61-23.73,4.55-35.82,4.76s-24.89.09-37.34.47-25.03,1.16-37.44,2.85-23.68,3.95-35.32,6.83c-13.25,3.27-26.3,7.33-39.08,12.12l1.96.19c8.08-20.32,22.75-37.48,40.82-49.65,16.79-11.3,36.55-18.34,56.78-19.64,11.47-.74,23.02.39,34.1,3.46.43.12,3.21-.39,2.54-1.12-13.61-14.85-27.28-29.73-42.88-42.53-13.92-11.42-29.39-21.35-46.47-27.31-9.61-3.36-19.67-5.37-29.84-5.78l-.07.92c4.95-2.52,10.92-4.25,16.53-3.51.95.13,2.37.32,2.63,1.19.03.09-.26.24-.4.3-.69.28-1.81.5-2.8.64-5.23.79-10.63.64-15.9.45-.64-.02-1.55.09-2.05.55-.36.33-.45.74.2.76Z"/>
  </g>
  <g id="tuff2">
    <path class="cls-1" d="m328.44,551.62c-2.79-.3-6.86-1.39-9.6-.53-2.52.79-3.76,3.96-6.37,4.45-1.75.32-2.1,1.32-3.32,1.76-4.42,1.57-11.04.52-15.86.87-5.59.41-11.16,1.07-16.69,1.97-11.09,1.81-22.02,4.57-32.69,8.1-21.26,7.03-41.48,17.07-60.4,29-38.04,23.99-70.96,55.13-103.61,86.06,29.2-11.22,58.4-22.44,87.59-33.65,21.14-8.12,42.98-16.69,58.88-32.82-19.56,50.42-46.42,98-79.5,140.79,58.18-19.91,80.19-92.55,132-125.67-4.03,16.54-8.07,33.09-12.1,49.63-4.07,16.69-7.52,36.3,3.57,49.42,8.61,10.19,23.06,12.69,36.27,14.53-9.93-9.06-10.15-25.2-4.48-37.39,5.66-12.19,15.89-21.51,25.34-31.08,9.45-9.56,18.68-20.33,21.37-33.5,1.65-8.08.7-16.43-.25-24.62-2.06-17.65-4.13-35.31-6.19-52.96-.46-3.92-1.07-8.17-3.92-10.89-2.61-2.5-6.45-3.1-10.04-3.48Z"/>
    <path class="cls-2" d="m329.64,551.08c-3.85-.45-7.82-1.6-11.61-.16-1.65.63-2.77,1.82-4.02,3.01-.65.62-1.19,1.05-2.06,1.3s-1.68.59-2.41,1.11c-1.64,1.15-3.48,1.23-5.46,1.28-2.2.05-4.4-.06-6.6-.08-4.85-.05-9.73.58-14.53,1.22-20.01,2.65-39.53,8.37-58.12,16.2-18.06,7.6-35.21,17.24-51.46,28.17-16.13,10.86-31.39,22.95-46.11,35.64-14.82,12.78-29.11,26.16-43.32,39.61-1.78,1.69-3.56,3.37-5.35,5.06-.69.65,1.61.23,1.8.16,21.52-8.27,43.05-16.54,64.57-24.81,10.19-3.91,20.4-7.77,30.55-11.76,8.93-3.5,17.79-7.21,26.27-11.7,9.43-4.99,18.36-11.03,25.89-18.63l-2.73.4c-7.64,19.67-16.38,38.91-26.17,57.61-9.79,18.69-20.63,36.84-32.45,54.32-6.65,9.84-13.62,19.46-20.88,28.86-.35.45,1.8.06,1.92.02,11.09-3.82,21.34-9.66,30.57-16.89,9.26-7.25,17.45-15.75,25.09-24.66s15.39-19.11,22.86-28.84,15.14-19.62,23.47-28.8c8.13-8.97,16.98-17.39,26.95-24.31,1.21-.84,2.44-1.66,3.69-2.46l-2.53.25c-2.67,10.97-5.35,21.94-8.02,32.91-2.36,9.66-5.04,19.32-6.71,29.13-1.43,8.42-2.11,17.33.21,25.65s7.6,14.68,14.94,18.72c8.41,4.63,18.17,6.13,27.55,7.44.35.05,3.1-.53,2.56-1.02-9.32-8.64-9.81-23.08-5.61-34.35,5.06-13.54,16.33-23.58,26.24-33.6,9.68-9.79,19.39-20.94,21.87-34.93,1.45-8.17.38-16.51-.57-24.67s-1.96-16.77-2.94-25.16c-1.09-9.32-2.06-18.66-3.28-27.97-.45-3.49-1.2-7.23-3.85-9.76s-6.66-3.15-10.21-3.54c-.67-.07-1.41.1-2.02.39-.19.09-1.04.62-.37.69,3.33.36,6.94.85,9.56,3.14s3.41,5.79,3.88,9.03c1.2,8.23,1.96,16.55,2.92,24.82s1.94,16.59,2.91,24.89,2.28,16.55,1.59,24.84c-2.56,30.58-35.84,43.95-47.57,69.88-5.38,11.89-5.45,27.84,4.7,37.26l2.56-1.02c-8.38-1.18-16.98-2.49-24.73-6.07s-13.7-9.52-16.55-17.54-2.56-16.57-1.41-24.75c1.35-9.59,3.97-18.98,6.26-28.37,2.97-12.19,5.94-24.38,8.91-36.57.17-.71-2.28.1-2.53.25-10.05,6.44-19.04,14.35-27.26,22.98s-15.96,18.23-23.38,27.8-14.76,19.42-22.5,28.84c-7.57,9.22-15.61,18.12-24.67,25.9-8.81,7.57-18.63,14.03-29.45,18.34-1.36.54-2.74,1.05-4.13,1.52l1.92.02c12.9-16.7,24.86-34.12,35.81-52.16,10.95-18.04,20.89-36.69,29.75-55.84,4.99-10.78,9.63-21.71,13.93-32.78.24-.61-2.44.11-2.73.4-13.48,13.6-31.08,21.77-48.65,28.74-20.41,8.09-40.98,15.79-61.47,23.66-11.85,4.55-23.69,9.1-35.54,13.65l1.8.16c13.85-13.12,27.7-26.24,42.01-38.87,14.27-12.59,28.99-24.7,44.51-35.73,15.7-11.16,32.25-21.18,49.73-29.32s36.82-14.75,56.31-18.19c5.04-.89,10.12-1.58,15.22-2.05,4.43-.41,8.77-.17,13.2-.28,2.01-.05,4.03-.22,5.99-.71.81-.21,1.63-.45,2.37-.84.65-.34,1.18-.91,1.85-1.19.76-.31,1.55-.43,2.29-.84s1.35-.92,1.95-1.49,1.13-1.18,1.77-1.69c.86-.7,1.72-.68,2.8-.63,2.04.11,4.03.58,6.06.81.67.08,1.41-.1,2.02-.39.19-.09,1.03-.62.37-.69Z"/>
  </g>
  <g id="tuff3">
    <path class="cls-1" d="m1159.04,323.03c26.46-24.23,60.14-39.72,95.06-47.98,34.92-8.27,71.15-9.6,106.99-8.01,17.59.78,35.26,2.25,52.77.35,19.28-2.09,38.1-8.3,54.84-18.1-39.8,22.68-84.94,33.78-128.12,49.09-7.76,2.75-15.48,5.65-22.91,9.19-16.42,7.82-31.22,18.67-45.23,30.26,36.75,2.14,75.29,4.83,106.42,24.5,11.4,7.2,21.44,16.5,33.25,23.01,14.39,7.93,31.19,11.44,47.55,9.92-25.52,11.58-55.12,11.48-82.39,5.03-27.27-6.45-52.71-18.85-77.77-31.38-4.93,10.75-1.03,23.22,2,34.65,3.7,13.97,6.01,28.49,4.66,42.88s-6.58,28.71-16.44,39.28c-5.97-24.7-22.31-46.31-43.22-60.75-20.91-14.44-46.13-21.98-71.48-23.8-2.32-.17-4.74-.32-6.72-1.54-3.57-2.21-4.37-6.97-4.77-11.15-2.12-22.13-2.75-44.39-1.88-66.6"/>
    <path class="cls-2" d="m1160,323.71c14.58-13.3,31.32-24.01,49.23-32.26,18.35-8.45,37.8-14.29,57.63-18.05,22.07-4.18,44.58-5.78,67.03-5.86,11.34-.04,22.67.35,33.99.92,11.24.57,22.5,1.2,33.76.83,21.18-.68,42.01-5.73,60.9-15.4,2.3-1.18,4.57-2.43,6.8-3.73,1.69-.99.16-2.58-1.3-1.75-24.61,13.99-51.32,23.63-78.12,32.47-13.35,4.4-26.76,8.64-40.07,13.17s-27.15,9.34-39.77,16.17c-13.84,7.48-26.5,16.92-38.61,26.93-.72.6-.61,1.69.47,1.76,25.62,1.49,51.69,3.09,76.32,10.86,12.32,3.88,23.96,9.4,34.56,16.8s21.12,16.55,33.34,22.25c13.47,6.28,28.59,8.85,43.38,7.53l-.53-1.96c-19.4,8.73-41.13,10.64-62.1,8.22-21.81-2.52-42.74-9.76-62.76-18.54-11.45-5.02-22.65-10.56-33.83-16.15-.7-.35-1.91.11-2.22.82-3.19,7.16-2.75,15.02-1.23,22.54,1.65,8.16,4.26,16.09,5.85,24.27,3.09,15.91,3.64,32.69-1.65,48.21-2.71,7.95-6.86,15.35-12.58,21.53l2.67.06c-6.86-28.04-26.57-51.66-51.24-66.1-13.41-7.85-28.17-13.16-43.37-16.26-7.64-1.56-15.3-2.19-23.03-3.04-3.92-.43-6.39-2.36-7.54-6.15-1.09-3.57-1.18-7.48-1.49-11.17-1.71-20.23-2.14-40.55-1.37-60.84.06-1.53-2.89-1.13-2.94.21-.69,18.04-.42,36.1.85,54.11.3,4.34.64,8.67,1.08,13,.31,3.1.81,6.4,2.62,9.01,2.05,2.96,5.4,3.79,8.8,4.07,3.91.32,7.8.65,11.69,1.19,30.44,4.17,60.1,17.3,80.65,40.63,10.63,12.08,18.57,26.46,22.4,42.13.29,1.17,2.11.66,2.67.06,10.08-10.91,15.4-25.47,16.72-40.13.76-8.47.27-17.02-1.01-25.42s-3.6-16.66-5.68-24.96-3.86-18.09-.08-26.58l-2.22.82c20.33,10.16,40.84,20.23,62.55,27.14s42.58,10.2,64.31,8.12c11.99-1.15,23.79-4.08,34.78-9.03,1.28-.58.86-2.08-.53-1.96-13.44,1.2-27.05-.94-39.46-6.23s-22.62-14.03-33.47-21.79-21.8-13.28-33.96-17.4c-11.88-4.02-24.23-6.54-36.63-8.25-14.37-1.98-28.85-2.89-43.32-3.74l.47,1.76c10.77-8.9,21.96-17.38,34.09-24.37s26.06-12.26,39.72-16.97c26.51-9.13,53.47-16.94,79.61-27.13,14.59-5.69,28.9-12.14,42.53-19.88l-1.3-1.75c-18.33,10.69-38.94,17-60.11,18.42-11.6.78-23.22.28-34.82-.3-11.2-.56-22.41-1.07-33.63-1.15-22.39-.15-44.84,1.15-66.94,4.87-20.19,3.4-40.03,8.86-58.88,16.9s-35.1,17.75-50.11,30.37c-1.86,1.57-3.69,3.18-5.49,4.82-1.45,1.32.83,2.37,1.93,1.36h0Z"/>
  </g>
</svg>